# xmcd
#
# Track frame offsets:
#	150
#	14363
#	25792
#	40686
#	53590
#	78429
#	93171
#	109098
#
# Disc length: 1578 seconds
#
# Revision: 0
# Processed by: cddbd v1.5.1PL2 Copyright (c) Steve Scherf et al.
# Submitted via: EasyCDDAExtractor 9.0.0.1
#
DISCID=4f062808
DTITLE=Jennifer Martin - Merry Christmas!
DYEAR=1900
DGENRE=
TTITLE0=Mary Did You Know
TTITLE1=The Christmas Song
TTITLE2=I'll Be Home For Christmas
TTITLE3=Silver Bells
TTITLE4=Breath of Heaven
TTITLE5=Silent Night
TTITLE6=Rudolph the Red Nose Reindeer
TTITLE7=Rocking Around the Christmas Tree
EXTD=
EXTT0=
EXTT1=
EXTT2=
EXTT3=
EXTT4=
EXTT5=
EXTT6=
EXTT7=
PLAYORDER=
